<svg id="_1" data-name="1" xmlns="http://www.w3.org/2000/svg" viewBox="0 0 120 120"><defs><style>.cls-1{fill:#b65c31;}.cls-2{fill:#914122;}.cls-2,.cls-3{fill-rule:evenodd;}.cls-3{fill:#eef2e0;}</style></defs><title>blog1</title><g id="blog"><path class="cls-1" d="M13.15,33.48s-20.74,35,0,60.91,98.51,0,98.51,0,19.44-57-23.33-60.91S37.78,30.88,13.15,33.48Z"/><path class="cls-2" d="M90.05,64.92l-.6-1.21-.79-.49c-1-.63-6.12,0-7.51-1-1-.76-1.18-2.11-1.42-3.92-.55-3.51-.91-3.73-1.57-4.91-2.44-4.25-9-7.45-13.47-7.89H50.47C40.92,45.51,33.05,52,33.05,60V76.85c0,8,7.87,14.42,17.42,14.42h22c9.62,0,17.39-6.47,17.46-14.42l.1-9.63v-2.3Zm-34.52-7.6h9.66a3.08,3.08,0,0,1,3.32,2.77,3.09,3.09,0,0,1-3.32,2.77H55.53c-1.87,0-1.48-1.44-1.48-2.94s-.39-2.6,1.48-2.6ZM75.16,79.4H55.53c-1.87,0-1.48-1-1.48-2.48s-.39-3,1.48-3H75.16a2.8,2.8,0,1,1,0,5.51Z"/><path class="cls-3" d="M78.72,64.54l-.36-.83-.66-.49c-.85-.63-5.1,0-6.25-1-.85-.76-1-2.11-1.18-3.92-.46-3.51-.77-3.73-1.31-4.91-2-4.25-7.49-7.45-11.22-7.89H47.57A14.55,14.55,0,0,0,33.06,60V76.85A14.52,14.52,0,0,0,47.57,91.27H64.24A14.53,14.53,0,0,0,78.77,76.85l.08-9.63v-2ZM51.79,57.32h8a2.77,2.77,0,0,1,0,5.54h-8a2.77,2.77,0,1,1,0-5.54ZM68.13,79.4H51.79a2.76,2.76,0,1,1,0-5.51H68.13a2.76,2.76,0,0,1,0,5.51Z"/></g></svg>