<svg id="_1" data-name="1" xmlns="http://www.w3.org/2000/svg" viewBox="0 0 120 120">
	<defs>
		<style>
			.cls-1{fill:#8f4139;}
			.cls-2{fill:#682825;}
			.cls-2,.cls-3{fill-rule:evenodd;}
			.cls-3{fill:#eef2e0;}
			#google_plus:hover{opacity: .5; height: 75px; width: 75px;}
		</style>
	</defs>
	<title>googleplus1</title>
	<g id="google_plus" data-name="google plus">
		<path class="cls-1" d="M13.89,29.17s-20.74,35,0,60.92,98.5,0,98.5,0,19.45-57-23.33-60.92S38.51,26.58,13.89,29.17Z"/>
		<path class="cls-2" d="M71.85,55.69c-5.44.07-10.87.07-16.3.07-1.56,0-3.15-.07-4.66,0-.33,0-.82.34-.82.52C50,59.16,50,62,50,65c4.45,0,8.7.59,13.16.59-.12.6-1.24,1.68-1.45,2.09-4.52,5.11-10.51,8.71-17.25,7.7-8.34-1.27-9.82-9.14-8.31-16.76a13.34,13.34,0,0,1,1-3.1c2.78-5.53,5.94-8,12.68-6.67,2.41.49,9.14,2.43,10.9,3.89l7.31-6.69C67.89,46,63,44.85,62.8,44.66a25.51,25.51,0,0,0-20.19-5c-10.91,1.6-18.75,9.45-20.43,18.6a20.69,20.69,0,0,0,1.23,12.07C27.58,80,39.31,86.92,50.75,85.76c5.6-.56,10.59-2.39,14.43-6.16,5.75-5.61,10.64-14,9.7-21.45-.16-1.23.1-2-1.17-2Zm22.71,1.58H92.79V56.06c0-1.71,0-3.43,0-5.18,0-.27-.44-.77-.62-.77-2-.07-4.11-.07-6.27-.07V57.2H76.4v1.32c.09,1.27.14,2.59.27,3.86,1.63.07,3.27.14,5,.14,1.37,0,2.78,0,4.28,0v7.06c2.35,0,4.51,0,6.85,0V62.52h9.27V57.27Z"/>
		<path class="cls-3" d="M74.11,55.52c-4.6.06-9.21.06-13.82.06-1.31,0-2.66-.06-3.95,0-.27,0-.69.3-.69.47,0,2.59,0,5.17,0,7.85H66.87a5,5,0,0,1-.38,1.31c-1.7,5-7,7.41-12.71,6.51A12,12,0,0,1,43.63,57.43a12.87,12.87,0,0,1,.83-2.79A12.56,12.56,0,0,1,58.32,47.9a11.62,11.62,0,0,1,5.3,2.65l6.2-6a2.9,2.9,0,0,1-.52-.44,20.73,20.73,0,0,0-17.11-4.53A20.64,20.64,0,0,0,34.87,56.29a19.55,19.55,0,0,0,1,10.83C39.44,75.81,49.39,82.05,59.09,81c4.74-.5,9-2.14,12.23-5.53,4.88-5,6.16-11.07,5.36-17.75a2.91,2.91,0,0,0-2.57-2.21Zm22.11-.09h-1.5V54.35c0-1.54,0-3.08,0-4.66,0-.24-.37-.69-.52-.69-1.72-.06-3.48-.06-5.32-.06v6.43h-8v1.18c.08,1.15.12,2.32.23,3.47,1.38.06,2.77.12,4.23.12,1.16,0,2.36,0,3.63,0v6.34c2,0,3.82,0,5.8,0V60.14h7.86V55.43Z"/>
	</g>
</svg>