<svg id="_1" data-name="1" xmlns="http://www.w3.org/2000/svg" viewBox="0 0 120 120"><defs><style>.cls-1{fill:#3d4f53;}.cls-2{fill:#222f30;}.cls-2,.cls-3{fill-rule:evenodd;}.cls-3{fill:#eef2e0;}</style></defs><title>instagram1</title><g id="instagram"><path class="cls-1" d="M13.15,29.17s-20.74,35,0,60.92,98.51,0,98.51,0,19.44-57-23.33-60.92S37.78,26.58,13.15,29.17Z"/><path class="cls-2" d="M58.5,64c0-4.39,5.38-10.53,8.55-7.37,2,2,4,2.6,4,7s-2,6-5,7C61.8,72,58.5,68.4,58.5,64ZM81.91,34.13H50.38c-7.76,0-14.13,6-14.13,13.35V86.66a4.07,4.07,0,0,0,4.17,4H81.91c7.8,0,14.14-6,14.14-13.35V47.48c0-7.36-6.34-13.35-14.14-13.35Zm-28.76,8h26c4.82,0,5.86,3.83,5.86,8.54v25.4c0,4.71-1,8.54-5.86,8.54h-26a8.66,8.66,0,0,1-8.76-8.54V50.67a8.66,8.66,0,0,1,8.76-8.54Zm22.46,5.71a2.58,2.58,0,1,0,2.62,2.57,2.59,2.59,0,0,0-2.62-2.57Zm.15,15.77c0-6.07-5.22-11-11.69-11s-11.69,4.93-11.69,11,5.25,11,11.69,11,11.69-4.92,11.69-11Z"/><path class="cls-3" d="M52.12,64a8,8,0,1,1,8,8,8,8,0,0,1-8-8Zm21.5-29.85H43.67A13.42,13.42,0,0,0,30.25,47.48V86.66a4,4,0,0,0,4,4H73.62A13.43,13.43,0,0,0,87.05,77.26V47.48A13.41,13.41,0,0,0,73.62,34.13Zm-26.77,8H72.44a8.58,8.58,0,0,1,8.61,8.54v25.4a8.58,8.58,0,0,1-8.61,8.54H46.85a8.58,8.58,0,0,1-8.6-8.54V50.67a8.58,8.58,0,0,1,8.6-8.54Zm27,5.71a2.58,2.58,0,1,0,2.58,2.57,2.57,2.57,0,0,0-2.58-2.57ZM71.05,63.61a11.5,11.5,0,1,0-11.49,11,11.25,11.25,0,0,0,11.49-11Z"/></g></svg>