<svg id="_1" data-name="1" xmlns="http://www.w3.org/2000/svg" viewBox="0 0 120 120"><defs><style>.cls-1{fill:#3d4f53;}.cls-2{fill:#222f30;}.cls-2,.cls-3{fill-rule:evenodd;}.cls-3{fill:#eef2e0;}</style></defs><title>paypal1</title><g id="paypal"><path class="cls-1" d="M14.51,31.14A4.45,4.45,0,0,0,11,33.55c-4.08,8-16.49,36.68,1.17,58.75C30.8,115.59,95.48,97,108.41,93a4.44,4.44,0,0,0,3-3c3.08-10.69,13.57-55.2-24-58.62C46,27.62,37.33,28.71,14.51,31.14Z"/><path class="cls-2" d="M56.33,66.5l2.43-8.37A4.1,4.1,0,0,1,62,55.55a34.8,34.8,0,0,1,7.77.23c7,1.06,5.49,6.36,5.49,6.36-1.36,8.29-17.32,7.15-17.32,7.15-2.54-.75-1.61-2.79-1.61-2.79ZM49.56,90.31l2.36-8.38a5,5,0,0,1,4.63-3.7h.14c3.56,0,28.33.78,33.82-13.65,2-5.28,3.43-17.78-21.63-17.78h-18S47,46.66,46.1,49.9l-11.76,41s-.5,2.58,2.67,2.58H45.1s3.71.17,4.46-3.15Z"/><path class="cls-3" d="M81.57,50.76c2.3,3.35,1.51,7.31.63,9.6-4.86,12.68-26.82,12-30,12h-.09a4.38,4.38,0,0,0-4.08,3.23L45.93,83C45.3,85.89,42,85.74,42,85.74H34.31c0,.5.13,2.07,2.46,2.07h7.17s3.26.15,4-2.78l2.34-8.24a3.86,3.86,0,0,1,4-2.39c3.16,0,25.11.7,30-12,1.07-2.85,2-8-2.59-11.67Zm-31.84,9.5,2.14-7.36a3.66,3.66,0,0,1,2.88-2.27,32.17,32.17,0,0,1,6.89.2c6.19.94,4.86,5.6,4.86,5.6-1.2,7.28-15.35,6.27-15.35,6.27-2.25-.65-1.42-2.44-1.42-2.44Zm-6,20.92,2.09-7.37a4.42,4.42,0,0,1,4.11-3.24H50c3.16,0,25.12.68,30-12C81.79,53.93,83.05,43,60.85,43h-16s-3.38-.13-4.2,2.72l-10.43,36S29.79,84,32.6,84h7.17s3.29.15,3.95-2.77Z"/></g></svg>