<svg id="_1" data-name="1" xmlns="http://www.w3.org/2000/svg" viewBox="0 0 120 120">
	<defs>
		<style>
			.cls-1{fill:#8f4139;}
			.cls-2{fill:#682825;}
			.cls-2,.cls-3{fill-rule:evenodd;}
			.cls-3{fill:#eef2e0;}
			#pinterest:hover{opacity: .5; height: 75px; width: 75px;}
		</style>
	</defs>
	<title>pinterest1</title>
	<g id="pinterest">
		<path class="cls-1" d="M13.24,32.14s-20.74,35,0,60.92,98.51,0,98.51,0,19.44-57-23.33-60.92S37.87,29.55,13.24,32.14Z"/>
		<path class="cls-2" d="M60.8,40.81c-21,0-31.66,9.85-31.66,18.1A11.09,11.09,0,0,0,30,63.27c1.25,3.1,4,5.6,8.27,6.75,1,.3,6.94,1,7.19.29.24-.52.69-1.78.93-2.33.32-.74-2.8-3-3.61-3.62a7.69,7.69,0,0,1-2.43-3,6.85,6.85,0,0,1-.53-2.68c0-7.33,6.39-12.91,19.86-12.91,11.88,0,18.44,4.74,18.44,11.11a17.9,17.9,0,0,1-.81,5.37C75.4,68.07,70.53,72.3,64,72.3c-4.62,0-8.14-2.5-7-5.6.65-1.72,1.58-3.53,2.39-5.29a13.65,13.65,0,0,0,1.58-5c0-2.41-1.94-4.36-6-4.36-4.74,0-8.55,3.23-8.55,7.51a8.23,8.23,0,0,0,.28,2.14,8.49,8.49,0,0,0,1.14,2.47S39.72,84.64,38.91,87c-1.7,4.72,0,7,1,7.53a4.12,4.12,0,0,0,3.18,1,10.34,10.34,0,0,0,7-6c.48-1.32,4.18-15.88,4.18-15.88,1.5,1.94,9.2,4.52,14,4.52,11.55,0,20.15-5.68,22.94-13.93a18.25,18.25,0,0,0,1-6c0-8.64-14.35-17.5-31.34-17.5Z"/>
		<path class="cls-3" d="M66.72,40.81c-18.37,0-27.7,9.85-27.7,18.1a12.47,12.47,0,0,0,.71,4.36A10.65,10.65,0,0,0,47,70a1.4,1.4,0,0,0,1.92-.71c.21-.52.6-1.78.81-2.33.29-.74.18-1-.53-1.62a7.6,7.6,0,0,1-2.13-3,7.91,7.91,0,0,1-.46-2.68c0-7.33,7.34-13.91,19.12-13.91,10.4,0,16.14,4.74,16.14,11.11a20.42,20.42,0,0,1-.71,5.37c-1.63,5.84-5.88,10.07-11.6,10.07-4,0-7.13-2.5-6.13-5.6.56-1.72,1.38-3.53,2.09-5.29a15.17,15.17,0,0,0,1.38-5c0-2.41-1.7-4.36-5.28-4.36a7.41,7.41,0,0,0-7.49,7.51,9.32,9.32,0,0,0,.25,2.14,9,9,0,0,0,1,2.47s-7,20.46-7.76,22.82c-1.49,4.72,0,7,.83,7.53a3.35,3.35,0,0,0,2.78,1,9.34,9.34,0,0,0,6.09-6c.43-1.32,3.67-15.88,3.67-15.88,1.31,1.94,8,4.52,12.27,4.52,10.11,0,17.63-5.68,20.08-13.93a20.93,20.93,0,0,0,.85-6c0-8.64-12.56-17.5-27.42-17.5Z"/>
	</g>
</svg>