<svg id="_1" data-name="1" xmlns="http://www.w3.org/2000/svg" viewBox="0 0 120 120"><defs><style>.cls-1{fill:#6a89a8;}.cls-2{fill:#40637f;}.cls-2,.cls-3{fill-rule:evenodd;}.cls-3{fill:#eef2e0;}</style></defs><title>skype1</title><g id="skype"><path class="cls-1" d="M12.15,30.79s-20.74,35,0,60.91,98.51,0,98.51,0,19.44-57-23.33-60.91S36.78,28.19,12.15,30.79Z"/><path class="cls-2" d="M93.35,69.81a14.54,14.54,0,0,0,.78-4.74,11.89,11.89,0,0,0-.08-1.7C92.73,52,78.25,43,60.52,43a50,50,0,0,0-5.76.3,27.45,27.45,0,0,0-10.37-2c-10.77,0-19.5,5.73-19.5,12.83a9.6,9.6,0,0,0,2.68,6.48A17.23,17.23,0,0,0,27,63c0,.68-.12,1.34-.12,2,0,12.2,15.06,22.1,33.65,22.1a50,50,0,0,0,6.17-.39,27,27,0,0,0,9.22,1.54c10.77,0,19.5-5.76,19.5-12.83a9.56,9.56,0,0,0-2.06-5.68ZM77.76,75.62A16.65,16.65,0,0,1,71,79.05,41.24,41.24,0,0,1,60.4,80.23a37,37,0,0,1-12-1.65,15.57,15.57,0,0,1-5.56-3.23,5.72,5.72,0,0,1-2.1-4,2.39,2.39,0,0,1,1.4-2.09,6.64,6.64,0,0,1,3.5-.85,6,6,0,0,1,3,.69,5.44,5.44,0,0,1,2,1.89,9.53,9.53,0,0,0,1.9,2.25,8.34,8.34,0,0,0,2.79,1.45,17.14,17.14,0,0,0,4.9.55,16.73,16.73,0,0,0,6.79-1.15c1.64-.77,2.47-1.65,2.47-2.74a2.38,2.38,0,0,0-1.24-2.14,13.61,13.61,0,0,0-3.62-1.29c-1.52-.3-3.62-.66-6.17-1a72.55,72.55,0,0,1-8.84-1.73,15.88,15.88,0,0,1-5.76-2.79,7,7,0,0,1-1.15-1.24,5.11,5.11,0,0,1-1-3.2,5.74,5.74,0,0,1,2.3-4.45,15,15,0,0,1,6.54-3,38.92,38.92,0,0,1,9.83-1.07,40.93,40.93,0,0,1,7.9.69A23.87,23.87,0,0,1,73.68,52,10,10,0,0,1,77,54.4,4.18,4.18,0,0,1,78,57a2.57,2.57,0,0,1-1.36,2.11,6.12,6.12,0,0,1-3.46,1,6,6,0,0,1-2.88-.57,8.29,8.29,0,0,1-2-1.79,9.38,9.38,0,0,0-3-2.46,13.66,13.66,0,0,0-5.59-.83,15,15,0,0,0-5.85,1c-1.39.61-2.09,1.27-2.09,2.11a1.68,1.68,0,0,0,.7,1.29,7.63,7.63,0,0,0,2,1,26.17,26.17,0,0,0,2.68.66,5.58,5.58,0,0,0,.57.08c1,.19,2.35.38,4.12.68,2.67.39,5.22.8,7.44,1.27A30.62,30.62,0,0,1,75,64.19a9.32,9.32,0,0,1,3.78,2.6,5.87,5.87,0,0,1,1.36,3.93,6.57,6.57,0,0,1-2.34,4.9Z"/><path class="cls-3" d="M84.16,69.81a16.55,16.55,0,0,0,.67-4.74,13.57,13.57,0,0,0-.07-1.7C83.63,52,71.17,43,55.92,43a37.11,37.11,0,0,0-5,.3,20.72,20.72,0,0,0-8.91-2c-9.27,0-16.78,5.73-16.78,12.83a10.51,10.51,0,0,0,2.3,6.48A20.18,20.18,0,0,0,27.08,63c0,.68-.11,1.34-.11,2,0,12.2,13,22.1,29,22.1a37.18,37.18,0,0,0,5.31-.39,20.26,20.26,0,0,0,7.92,1.54c9.27,0,16.78-5.76,16.78-12.83a10.57,10.57,0,0,0-1.77-5.68ZM70.74,75.62a13.69,13.69,0,0,1-5.83,3.43,30.82,30.82,0,0,1-9.1,1.18,27.77,27.77,0,0,1-10.33-1.65,13.15,13.15,0,0,1-4.78-3.23,6.09,6.09,0,0,1-1.8-4,2.43,2.43,0,0,1,1.2-2.09,5.08,5.08,0,0,1,3-.85,4.6,4.6,0,0,1,2.55.69A5.07,5.07,0,0,1,47.35,71,9.39,9.39,0,0,0,49,73.24a6.91,6.91,0,0,0,2.41,1.45,12.75,12.75,0,0,0,4.21.55,12.6,12.6,0,0,0,5.84-1.15c1.41-.77,2.12-1.65,2.12-2.74a2.49,2.49,0,0,0-1.06-2.14,10.74,10.74,0,0,0-3.11-1.29c-1.31-.3-3.12-.66-5.31-1a55.13,55.13,0,0,1-7.61-1.73,13,13,0,0,1-4.95-2.79,7.18,7.18,0,0,1-1-1.24,5.7,5.7,0,0,1-.89-3.2,6.08,6.08,0,0,1,2-4.45,12.17,12.17,0,0,1,5.63-3,29,29,0,0,1,8.46-1.07,30.41,30.41,0,0,1,6.79.69A18.56,18.56,0,0,1,67.24,52a8.85,8.85,0,0,1,2.83,2.41A4.53,4.53,0,0,1,71,57a2.63,2.63,0,0,1-1.17,2.11,4.72,4.72,0,0,1-3,1,4.53,4.53,0,0,1-2.48-.57,7.62,7.62,0,0,1-1.73-1.79A8.41,8.41,0,0,0,60,55.2a10.3,10.3,0,0,0-4.81-.83,11.26,11.26,0,0,0-5,1c-1.2.61-1.8,1.27-1.8,2.11a1.79,1.79,0,0,0,.6,1.29,6.26,6.26,0,0,0,1.73,1,19.87,19.87,0,0,0,2.3.66,4.33,4.33,0,0,0,.5.08c.81.19,2,.38,3.54.68,2.3.39,4.49.8,6.4,1.27a23.6,23.6,0,0,1,4.92,1.75,8.12,8.12,0,0,1,3.25,2.6,6.51,6.51,0,0,1,1.17,3.93,7,7,0,0,1-2,4.9Z"/></g></svg>