<svg id="_1" data-name="1" xmlns="http://www.w3.org/2000/svg" viewBox="0 0 120 120">
	<defs>
		<style>
			.cls-1{fill:#c79147;}
			.cls-2{fill:#a37236;}
			.cls-2,.cls-3{fill-rule:evenodd;}
			.cls-3{fill:#eef2e0;}
			#snapchat:hover{opacity: .5; height: 75px; width: 75px;}
		</style>
	</defs>
	<title>snapchat1</title>
	<g id="snapchat">
		<path class="cls-1" d="M13.15,29.58s-20.74,35,0,60.92,98.51,0,98.51,0,19.44-57-23.33-60.92S37.78,27,13.15,29.58Z"/>
		<path class="cls-2" d="M95,76v-.06H95v0a9.52,9.52,0,0,0-2.44-.62h0a21.53,21.53,0,0,1-9.87-5.21,18.25,18.25,0,0,1-3.48-4.27h0A1.58,1.58,0,0,1,79.25,64h.08a8,8,0,0,1,3.39-1.6h0a15.51,15.51,0,0,0,4.63-1.68h0a1.42,1.42,0,0,0,.7-.63c0-.06.08-.15.12-.23a1,1,0,0,0-.12-.89h0a3.38,3.38,0,0,0-1.57-1.1h0a5,5,0,0,0-2.81-.18h0a13.34,13.34,0,0,1-2.44.51s0,.06,0,.06a10.27,10.27,0,0,1-2.81-.06,1.09,1.09,0,0,0-.08-.45h0c0-1.18.12-2.43.12-3.76h0a26.2,26.2,0,0,0-.16-6v-.06c-.91-3.4-4-6.34-7.85-8.32a25,25,0,0,0-9.63-2.4h0c-1.16-.09-2.31-.15-3.47-.15-4.59.06-9.38.92-13.06,3a16.47,16.47,0,0,0-6.4,6v0c-1.32,2.37-1.2,4.95-1,7.29h0a36.9,36.9,0,0,1,.12,4.8s0,0-.08.09a14.3,14.3,0,0,1-3.26-.06h0c-.78-.09-1.52-.33-2.48-.51H31a3.52,3.52,0,0,0-2.44.39h0v0c-.57.26-1.36.68-1.4,1.48a.15.15,0,0,0,0,.12h0a1.68,1.68,0,0,0,.83,1,3.77,3.77,0,0,0,.86.45v.06a36.84,36.84,0,0,0,5.17,1.6h0c1.16.35,2.11.89,2.31,1.6s-.2,1.87-.91,2.81h0a20.37,20.37,0,0,1-7.85,6.46,24,24,0,0,1-5.74,1.87h0a3.92,3.92,0,0,0-2.07.89.24.24,0,0,0-.12.18A1,1,0,0,0,20,77.67a2.55,2.55,0,0,0,.91.51h0a25.21,25.21,0,0,0,5.33,1.33h0c1.28.24,2.44.33,3.35.59,0,.06.16.27.37.65.33.68.45,1.51.82,2.34a1,1,0,0,0,.71.45,2.55,2.55,0,0,0,1.28-.06s0,0,0,0a30,30,0,0,1,8.43-.18h0c2.81.51,5.16,1.87,7.93,3h0A15.71,15.71,0,0,0,55.45,88h0a53.21,53.21,0,0,0,5.37-.09h0a12.74,12.74,0,0,0,4.22-1l.08-.06c2.85-1.13,5.33-2.55,8.14-3.44h0a20.67,20.67,0,0,1,3.31-.27h0a65.7,65.7,0,0,1,6.89.27h.25a1.54,1.54,0,0,0,.79-.3c.16-.14.16-.29.24-.38s.13-.21,0-.09c.09,0,.09-.09.13-.12a5.76,5.76,0,0,1,1.28-2.43,2.58,2.58,0,0,1,1.45-.32h.16a37.51,37.51,0,0,0,5.45-1.1c0-.06,0-.06.09-.06a5,5,0,0,0,2.15-1h0C96,77,95.78,76.28,95,76Z"/>
		<path class="cls-3" d="M95.45,76v-.06h-.07v0a6.61,6.61,0,0,0-2-.62h0a16.87,16.87,0,0,1-8.06-5.21,18.41,18.41,0,0,1-2.83-4.27h0A1.82,1.82,0,0,1,82.58,64h.06a6.14,6.14,0,0,1,2.77-1.6h0a11.24,11.24,0,0,0,3.77-1.68h0a1.22,1.22,0,0,0,.57-.63c0-.06.07-.15.1-.23a1.2,1.2,0,0,0-.1-.89h0a2.81,2.81,0,0,0-1.28-1.1h0a3.38,3.38,0,0,0-2.29-.18h0a9,9,0,0,1-2,.51s0,.06,0,.06a6.84,6.84,0,0,1-2.29-.06,1.23,1.23,0,0,0-.07-.45h0c0-1.18.1-2.43.1-3.76h0a32.53,32.53,0,0,0-.13-6v-.06a13.69,13.69,0,0,0-6.41-8.32,17.44,17.44,0,0,0-7.85-2.4h0c-.94-.09-1.88-.15-2.83-.15A19.28,19.28,0,0,0,54,40a15.05,15.05,0,0,0-5.22,6v0A14.7,14.7,0,0,0,48,53.32h0a43,43,0,0,1,.1,4.8s0,0-.06.09a9.61,9.61,0,0,1-2.67-.06h0c-.64-.09-1.25-.33-2-.51h-.07a2.43,2.43,0,0,0-2,.39h0v0a1.86,1.86,0,0,0-1.15,1.48.15.15,0,0,0,0,.12h0a1.62,1.62,0,0,0,.67,1,2.94,2.94,0,0,0,.71.45v.06a26.14,26.14,0,0,0,4.21,1.6h0a2.74,2.74,0,0,1,1.89,1.6,3.68,3.68,0,0,1-.74,2.81h0a18,18,0,0,1-6.4,6.46,17.23,17.23,0,0,1-4.69,1.87h0a2.94,2.94,0,0,0-1.69.89.26.26,0,0,0-.1.18,1.12,1.12,0,0,0,.27,1.12,2.14,2.14,0,0,0,.74.51h0a17.79,17.79,0,0,0,4.35,1.33h0c1,.24,2,.33,2.73.59,0,.06.14.27.3.65.27.68.38,1.51.68,2.34a.77.77,0,0,0,.57.45,1.75,1.75,0,0,0,1.05-.06,0,0,0,0,0,0,0,20,20,0,0,1,6.87-.18h0c2.29.51,4.22,1.87,6.47,3h0A11,11,0,0,0,63.17,88h0a35.46,35.46,0,0,0,4.38-.09h0a8.81,8.81,0,0,0,3.43-1l.07-.06c2.33-1.13,4.35-2.55,6.64-3.44h0a13.82,13.82,0,0,1,2.7-.27h0a43.8,43.8,0,0,1,5.62.27h.2a1.1,1.1,0,0,0,.64-.3c.14-.14.14-.29.21-.38s.1-.21,0-.09c.06,0,.06-.09.1-.12a6.32,6.32,0,0,1,1-2.43,1.8,1.8,0,0,1,1.18-.32h.14A25.74,25.74,0,0,0,94,78.65c0-.06,0-.06.07-.06a3.83,3.83,0,0,0,1.76-1h0a1,1,0,0,0-.34-1.6Z"/>
	</g>
</svg>