<svg id="_1" data-name="1" xmlns="http://www.w3.org/2000/svg" viewBox="0 0 120 120"><defs><style>.cls-1{fill:#c79147;}.cls-2{fill:#a37236;}.cls-2,.cls-3{fill-rule:evenodd;}.cls-3{fill:#eef2e0;}</style></defs><title>soundcloud1</title><g id="soundcloud"><path class="cls-1" d="M13.61,28.63s-20.74,35,0,60.91,98.5,0,98.5,0,19.45-57-23.33-60.91S38.23,26,13.61,28.63Z"/><path class="cls-2" d="M36.84,78.07h0A2.81,2.81,0,0,1,34,75.31V64.25a2.81,2.81,0,0,1,2.83-2.76,2.9,2.9,0,0,1,3,2.76V75.31a2.9,2.9,0,0,1-3,2.76Zm11.58,0h0a2.83,2.83,0,0,1-2.91-2.76V58.74a2.9,2.9,0,0,1,5.79,0V75.31a2.83,2.83,0,0,1-2.88,2.76Zm11.51,0h0c-1.59,0-2.88-1.53-2.88-3.49V53.88a2.92,2.92,0,1,1,5.75,0v20.7c0,2-1.28,3.49-2.87,3.49Zm36,0a9.67,9.67,0,1,0,0-19.33,8.52,8.52,0,0,0-3.26.58A19.92,19.92,0,0,0,72.91,43.58a21.24,21.24,0,0,0-4.32.4V78.07H95.92Zm-70.58,0h0a2.82,2.82,0,0,1-2.84-2.76V69.8a2.86,2.86,0,0,1,5.72,0v5.51a2.83,2.83,0,0,1-2.88,2.76Z"/><path class="cls-3" d="M34.38,78.07h0a2.68,2.68,0,0,1-2.55-2.76V64.25a2.68,2.68,0,0,1,2.55-2.76A2.73,2.73,0,0,1,37,64.25V75.31a2.73,2.73,0,0,1-2.65,2.76Zm10.4,0h0a2.69,2.69,0,0,1-2.62-2.76V58.74a2.61,2.61,0,1,1,5.2,0V75.31a2.67,2.67,0,0,1-2.58,2.76Zm10.33,0h0c-1.43,0-2.58-1.53-2.58-3.49V53.88c0-1.89,1.15-3.41,2.58-3.41s2.58,1.52,2.58,3.41v20.7c0,2-1.15,3.49-2.58,3.49Zm32.32,0c5,0,9.07-4.25,9.07-9.69a9.33,9.33,0,0,0-9.07-9.64,6.89,6.89,0,0,0-2.92.58c-1.6-9-9-15.74-17.74-15.74a17.21,17.21,0,0,0-3.88.4V78.07H87.43Zm-63.38,0h0a2.68,2.68,0,0,1-2.55-2.76V69.8a2.57,2.57,0,1,1,5.13,0v5.51a2.67,2.67,0,0,1-2.58,2.76Z"/></g></svg>