<svg id="_1" data-name="1" xmlns="http://www.w3.org/2000/svg" viewBox="0 0 120 120"><defs><style>.cls-1{fill:#507261;}.cls-2{fill:#395647;}.cls-3{fill:#eef2e0;}</style></defs><title>spotify1</title><g id="spotify"><path class="cls-1" d="M12.22,25.47s-20.74,35,0,60.92,98.5,0,98.5,0,19.44-57-23.33-60.92S36.84,22.88,12.22,25.47Z"/><path class="cls-2" d="M55.12,34.54C40.15,34.54,27.9,46,27.9,60S40.15,85.38,55.12,85.38,82.34,73.94,82.34,60,70.23,34.54,55.12,34.54ZM67.64,72.91a1.48,1.48,0,0,1-2.31.65c-6.4-4.68-14.43-5.65-24-3.07-.95.32-1.77-.48-2-1.45a2.08,2.08,0,0,1,1.23-2.42C50.9,63.88,59.88,65,67,70.17A2.11,2.11,0,0,1,67.64,72.91Zm3.27-7.22a1.93,1.93,0,0,1-2.86.75A32.16,32.16,0,0,0,41,63a2.07,2.07,0,0,1-2.59-1.52,2.38,2.38,0,0,1,1.36-2.87c9.94-3.33,22.18-1.67,30.62,4.08A2.28,2.28,0,0,1,70.91,65.69Zm4.93-5.54a2.5,2.5,0,0,1-3.64.91c-9-6.93-24-7.66-32.5-4.19-1.4.54-2.8-.55-3.22-2.2a3.7,3.7,0,0,1,1.68-4.2c9.94-3.83,26.33-3.1,36.7,4.93A4.18,4.18,0,0,1,75.84,60.15Z"/><path class="cls-3" d="M65,34c-15,0-27.22,11.44-27.22,25.42S50.07,84.83,65,84.83,92.26,73.39,92.26,59.41,80.15,34,65,34ZM77.56,72.36a1.48,1.48,0,0,1-2.31.64c-6.4-4.68-14.43-5.64-24-3.06-.95.32-1.77-.49-2-1.45a2.08,2.08,0,0,1,1.23-2.42c10.34-2.74,19.32-1.62,26.4,3.55A2.11,2.11,0,0,1,77.56,72.36Zm3.27-7.22a1.93,1.93,0,0,1-2.86.75,32.12,32.12,0,0,0-27.08-3.47A2.07,2.07,0,0,1,48.3,60.9,2.38,2.38,0,0,1,49.66,58c9.94-3.33,22.18-1.67,30.62,4.08A2.28,2.28,0,0,1,80.83,65.14Zm4.93-5.54a2.5,2.5,0,0,1-3.64.91c-9-6.93-24-7.67-32.5-4.2-1.4.55-2.8-.55-3.22-2.19a3.7,3.7,0,0,1,1.68-4.2c9.94-3.83,26.33-3.1,36.7,4.93A4.17,4.17,0,0,1,85.76,59.6Z"/></g></svg>