<svg id="_1" data-name="1" xmlns="http://www.w3.org/2000/svg" viewBox="0 0 120 120"><defs><style>.cls-1{fill:#3d4f53;}.cls-2{fill:#222f30;}.cls-2,.cls-3{fill-rule:evenodd;}.cls-3{fill:#eef2e0;}</style></defs><title>tumblr1</title><g id="tumblr"><path class="cls-1" d="M14.06,29.78s-20.74,35,0,60.92,98.5,0,98.5,0,19.44-57-23.33-60.92S38.68,27.19,14.06,29.78Z"/><path class="cls-2" d="M44.39,33.77V45.12h-14V55.69l14,0V76.64s.06,17.13,19.37,17.13c25.06,0,20.88-17,20.88-17H72.11S70.7,80.23,69,81.69c-3.26,2.73-9.39,3.18-10.53-5v-21h14V45.12h-14V33.77Z"/><path class="cls-3" d="M52.58,34.22V45.57H41.25V56.13l11.33,0V77.09s.05,17.13,15.62,17.13c20.21,0,16.84-17,16.84-17H74.94s-1.14,3.46-2.54,4.91c-2.63,2.74-7.57,3.19-8.49-5v-21H75.23V45.57H63.91V34.22Z"/></g></svg>