<svg id="_1" data-name="1" xmlns="http://www.w3.org/2000/svg" viewBox="0 0 120 120"><defs><style>.cls-1{fill:#6a89a8;}.cls-2{fill:#40637f;}.cls-2,.cls-3{fill-rule:evenodd;}.cls-3{fill:#eef2e0;}</style></defs><title>twitter1</title><g id="twitter"><path class="cls-1" d="M13.7,26.33s-20.74,35,0,60.91,98.5,0,98.5,0,19.44-57-23.33-60.91S38.32,23.73,13.7,26.33Z"/><path class="cls-2" d="M93.25,46.5a26.48,26.48,0,0,1-6.49,1.61,10.42,10.42,0,0,0,5-5.64A24.81,24.81,0,0,1,84.55,45a11.84,11.84,0,0,0-8.29-3.22C70,41.73,65,46.28,65,51.86a10.22,10.22,0,0,0,.33,2.32A33.34,33.34,0,0,1,42,43.59a9.58,9.58,0,0,0-1.55,5.09,9.94,9.94,0,0,0,5,8.44,11.86,11.86,0,0,1-5.11-1.25V56a8.79,8.79,0,0,0,.78,3.65,11.06,11.06,0,0,0,8.31,6.27,12.37,12.37,0,0,1-3,.38,10.66,10.66,0,0,1-2.12-.22,11.33,11.33,0,0,0,10.56,7.08,24.41,24.41,0,0,1-14,4.33c-.93,0-1.8-.06-2.72-.14A35,35,0,0,0,55.44,81.9c17.68,0,28.6-11.14,31.44-22.71a25.51,25.51,0,0,0,.75-6.13v-1.3a22.6,22.6,0,0,0,5.62-5.26Z"/><path class="cls-3" d="M82.21,45.45a26,26,0,0,1-6.49,1.6,10.44,10.44,0,0,0,5-5.63,24.5,24.5,0,0,1-7.21,2.47,11.88,11.88,0,0,0-8.29-3.21c-6.22,0-11.31,4.55-11.31,10.13a10.22,10.22,0,0,0,.33,2.32,33.31,33.31,0,0,1-23.33-10.6,9.61,9.61,0,0,0-1.55,5.1,9.94,9.94,0,0,0,5,8.44,11.72,11.72,0,0,1-5.11-1.26V55a8.79,8.79,0,0,0,.78,3.65,11,11,0,0,0,8.31,6.26,11.9,11.9,0,0,1-3,.38A11.46,11.46,0,0,1,33.25,65a11.33,11.33,0,0,0,10.56,7.08,24.41,24.41,0,0,1-14,4.33c-.93,0-1.8-.06-2.72-.14A35,35,0,0,0,44.4,80.85c17.68,0,28.6-11.14,31.44-22.71A25.57,25.57,0,0,0,76.59,52V50.7a22.38,22.38,0,0,0,5.62-5.25Z"/></g></svg>