<svg id="_1" data-name="1" xmlns="http://www.w3.org/2000/svg" viewBox="0 0 120 120"><defs><style>.cls-1{fill:#6a89a8;}.cls-2{fill:#40637f;}.cls-2,.cls-3{fill-rule:evenodd;}.cls-3{fill:#eef2e0;}</style></defs><title>vimeo1</title><g id="vimeo"><path class="cls-1" d="M12.25,28.17s-20.74,35,0,60.92,98.51,0,98.51,0,19.44-57-23.33-60.92S36.88,25.58,12.25,28.17Z"/><path class="cls-2" d="M90.78,53.58c-4.16,16-27.24,29.5-34.24,32.6S43.26,84.89,41,81.63C38.34,77.93,30.5,57.72,28.38,56s-8.24,1.7-8.24,1.7l-3-2.71S29.7,44.7,39.34,43.41c10.12-1.35,10.12,10.66,12.52,17.41,2.4,6.47,4,10.14,6,10.14s6-3.59,10.32-9.13-.16-10.44-8.64-6.93C63,41,94.9,37.62,90.78,53.58Z"/><path class="cls-3" d="M90.85,53.58c-3.33,16-21.79,29.5-27.39,32.6S52.83,84.89,51,81.63C48.9,77.93,42.62,57.72,40.93,56s-6.59,1.7-6.59,1.7L31.94,55S42,44.7,49.7,43.41c8.09-1.35,8.09,10.66,10,17.41C61.63,67.29,62.88,71,64.55,71s4.8-3.59,8.25-9.13-.13-10.44-6.91-6.93c2.72-13.93,28.26-17.28,25-1.32Z"/></g></svg>