<svg id="_1" data-name="1" xmlns="http://www.w3.org/2000/svg" viewBox="0 0 120 120"><defs><style>.cls-1{fill:#6a89a8;}.cls-2{fill:#40637f;}.cls-2,.cls-3{fill-rule:evenodd;}.cls-3{fill:#eef2e0;}</style></defs><title>vk1</title><g id="vk"><path class="cls-1" d="M12.71,29.78s-20.74,35,0,60.92,98.5,0,98.5,0,19.45-57-23.33-60.92S37.34,27.19,12.71,29.78Z"/><path class="cls-2" d="M94.5,47.09c-1-.59-4.61-.55-8.18-.51s-7.28.15-8.14.43-2.48,3.75-4.7,7.35c-2.56,4-5.67,8-7.68,8-2.64,0-2.08-6.59-1.95-11.5,0-3.2-.65-4.23-1.21-4.5a25.17,25.17,0,0,0-5.18-1.49s-11.39-.57-12.93,3.48c2.19.21,5.9-.38,4.6,12.11-.1.61-1.68,5.75-7-1.11-1.36-1.72-6.53-12.06-8.32-12.1-5.84,0-11.64-.16-13.63.77s2.62,8,10.21,17.51C36.49,73.28,43,79.3,54.16,80.69c2.12.16,7.55.28,9.29-.41,1.15-.48-.38-7.23,3.59-8,1.74-.29,8.63,7,11.2,7.77a30.38,30.38,0,0,0,8.48.51c3.79-.14,8.11.21,8.49-1.93.88-4.68-11.61-10.63-12-13.49-.32-2.07,4.47-5.94,6.88-8.9,3-3.57,6.31-7.88,4.39-9.2Z"/><path class="cls-3" d="M82.14,47.24c-.83-.6-3.82-.56-6.78-.52s-6,.13-6.75.41-2,3.75-3.88,7.33c-2.11,4.06-4.68,8-6.35,7.95-2.19,0-1.74-6.6-1.64-11.51,0-3.2-.55-4.23-1-4.5a18.46,18.46,0,0,0-4.3-1.5S42,44.31,40.71,48.35c1.82.22,4.9-.37,3.84,12.12-.08.61-1.38,5.75-5.84-1.12-1.13-1.73-5.44-12.08-6.92-12.12-4.84,0-9.64-.19-11.3.74S22.68,56,29,65.5c5.11,7.81,10.52,13.84,19.78,15.26,1.76.16,6.26.29,7.7-.4,1-.47-.33-7.22,3-7.93,1.44-.29,7.16,7,9.3,7.79a20.94,20.94,0,0,0,7,.52c3.14-.12,6.72.23,7-1.91.71-4.67-9.65-10.65-10-13.51-.27-2.07,3.69-5.93,5.69-8.88,2.48-3.57,5.2-7.87,3.61-9.2Z"/></g></svg>