<svg id="_1" data-name="1" xmlns="http://www.w3.org/2000/svg" viewBox="0 0 120 120">
	<defs>
		<style>
			.cls-1{fill:#868864;}
			.cls-2{fill:#5b5b40;}
			.cls-2,.cls-3{fill-rule:evenodd;}
			.cls-3{fill:#eef2e0;}
			#whatsapp:hover{opacity: .5; height: 75px; width: 75px;}
		</style>
	</defs>
	<title>whatsapp1</title>
	<g id="whatsapp">
		<path class="cls-1" d="M13.48,30.19s-20.74,35,0,60.91,98.51,0,98.51,0,19.44-57-23.33-60.91S38.11,27.59,13.48,30.19Z"/>
		<path class="cls-2" d="M96.06,59.59c-.5-16.09-15.83-29-34.69-29-18.63,0-33.85,12.55-34.61,28.4a6.83,6.83,0,0,0-.08,1.29,26.75,26.75,0,0,0,5,15.36l-6.28,16,19.24-5.26A39.25,39.25,0,0,0,61.37,90C80.54,90,96.1,76.76,96.1,60.31c0-.26,0-.46,0-.72Zm-19,4.84c-.81-.38-4.63-2.26-5.34-2.54s-1.27-.38-1.8.42a33.28,33.28,0,0,1-2.48,3c-.46.56-.92.59-1.66.24a19.81,19.81,0,0,1-6.33-3.83,23,23,0,0,1-4.39-5.26c-.42-.83-.07-1.18.32-1.63a9.39,9.39,0,0,0,1.2-1.33,1.2,1.2,0,0,0,.28-.35,6.51,6.51,0,0,0,.5-.9,1.19,1.19,0,0,0-.07-1.33c-.14-.38-1.73-4.21-2.41-5.71s-1.31-1.29-1.73-1.29-1-.07-1.52-.07a2.74,2.74,0,0,0-2.09,1,8.23,8.23,0,0,0-2.79,6.41,7.79,7.79,0,0,0,.46,2.58A17.06,17.06,0,0,0,50,59.11c.39.52,5.41,8.49,13.4,11.56s8,2,9.45,1.91,4.63-1.81,5.31-3.65a6.25,6.25,0,0,0,.42-3.66,4.63,4.63,0,0,0-1.49-.84ZM64.31,82a29.17,29.17,0,0,1-14.67-3.88L39.39,81l3.3-8.72A21.57,21.57,0,0,1,37.6,58.49a17.19,17.19,0,0,1,.14-2.27C39.08,44.32,50.48,35,64.31,35c14,0,21.55,9.55,22.61,21.63A16.26,16.26,0,0,1,87,58.5C87,71.42,79,82,64.31,82Z"/>
		<path class="cls-3" d="M87.94,59.59c-.44-16.09-14-29-30.7-29-16.49,0-30,12.55-30.64,28.4a7.79,7.79,0,0,0-.07,1.29,29.16,29.16,0,0,0,4.41,15.36l-5.56,16,17-5.26A31.47,31.47,0,0,0,57.24,90C74.2,90,88,76.76,88,60.31c0-.26,0-.46,0-.72ZM72.71,66.27C72,65.89,68.59,64,68,63.74s-1.13-.38-1.6.41a31.44,31.44,0,0,1-2.2,2.95c-.41.55-.82.59-1.48.24a17.48,17.48,0,0,1-5.63-3.81,22.56,22.56,0,0,1-3.89-5.23,1.3,1.3,0,0,1,.28-1.63,9.1,9.1,0,0,0,1.07-1.32,1.3,1.3,0,0,0,.25-.35,7.52,7.52,0,0,0,.44-.9,1.28,1.28,0,0,0-.06-1.31C55,52.4,53.6,48.59,53,47.1s-1.17-1.28-1.54-1.28-.88-.07-1.35-.07a2.31,2.31,0,0,0-1.86,1,8.6,8.6,0,0,0-2.48,6.38,8.42,8.42,0,0,0,.41,2.56A17.89,17.89,0,0,0,48.63,61c.35.51,4.81,8.45,11.91,11.5s7.14,2,8.4,1.91,4.11-1.8,4.71-3.64A6.79,6.79,0,0,0,74,67.1a3.91,3.91,0,0,0-1.32-.83ZM59.84,82a23.6,23.6,0,0,1-13-3.88L37.78,81l2.92-8.72a23.31,23.31,0,0,1-4.5-13.76,19.07,19.07,0,0,1,.12-2.27,23.65,23.65,0,0,1,47.09.43c.06.62.06,1.25.06,1.84A23.59,23.59,0,0,1,59.84,82Z"/>
	</g>
</svg>