<svg id="_1" data-name="1" xmlns="http://www.w3.org/2000/svg" viewBox="0 0 120 120"><defs><style>.cls-1{fill:#b65c31;}.cls-2{fill:#914122;}.cls-2,.cls-3{fill-rule:evenodd;}.cls-3{fill:#eef2e0;}</style></defs><title>youtube1</title><g id="youtube"><path class="cls-1" d="M12.23,28.87s-20.74,35,0,60.92,98.51,0,98.51,0,19.44-57-23.33-60.92S36.86,26.28,12.23,28.87Z"/><path class="cls-2" d="M90.64,51.5S90,47.36,88,45.56A10.14,10.14,0,0,0,81.41,43c-9.23-.59-23.07-.59-23.07-.59h-.08s-13.8,0-23,.59a10.08,10.08,0,0,0-6.61,2.55c-2,1.8-2.65,5.94-2.65,5.94a80,80,0,0,0-.68,9.65v4.57A78.5,78.5,0,0,0,26,75.37s-.49,3.14,1.48,5c2.5,2.4,5.79,2.31,7.3,2.55,5.26.47,22.43.63,22.43.63s13.84-.06,23.07-.63a10,10,0,0,0,6.58-2.55c2-1.83,3.29-5.82,3.29-5.82a31.71,31.71,0,0,0,1.17-8.8V61.15a84.92,84.92,0,0,0-.64-9.65ZM72.46,62.34,48.61,74.45l-2-14.84L46,55.09l12,3.3Z"/><path class="cls-3" d="M80.31,51.5s-.57-4.14-2.26-5.94A7.94,7.94,0,0,0,72.43,43c-7.89-.59-19.72-.59-19.72-.59h-.06s-11.8,0-19.68.59a7.92,7.92,0,0,0-5.66,2.55c-1.68,1.8-2.26,5.94-2.26,5.94a93.56,93.56,0,0,0-.58,9.65v4.57a91.78,91.78,0,0,0,.58,9.65s-.42,3.14,1.26,5c2.14,2.4,5,2.31,6.24,2.55,4.49.47,19.16.63,19.16.63s11.83-.06,19.72-.63a7.81,7.81,0,0,0,5.62-2.55c1.69-1.83,2.81-5.82,2.81-5.82a36.38,36.38,0,0,0,1-8.8V61.15c0-4.79-.55-9.65-.55-9.65ZM64.78,62.34,44.4,74.45,42.7,59.61l-.52-4.52,10.24,3.3Z"/></g></svg>