<svg xmlns="http://www.w3.org/2000/svg" viewBox="0 0 120 120">
	<defs>
		<style>
			.cls-1{fill:#262626;stroke:#262626;stroke-miterlimit:10;}
			.cls-2,.cls-3{fill:#eef2e0;fill-rule:evenodd;}
			.cls-3{opacity:0.2;}
			#blog:hover{opacity: .5; height: 75px; width: 75px;}
		</style></defs><title>blog2</title>
		<g id="_2" data-name="2"><g id="blog">
			<circle class="cls-1" cx="60.52" cy="61" r="49"/>
			<path class="cls-2" d="M88.31,57.34l-.43-1-.79-.59c-1-.76-6.13,0-7.52-1.19-1-.93-1.19-2.54-1.42-4.72-.56-4.22-.92-4.48-1.58-5.9-2.44-5.12-9-9-13.49-9.5H50.84A17.5,17.5,0,0,0,33.39,51.83V72.15A17.46,17.46,0,0,0,50.84,89.5h20A17.49,17.49,0,0,0,88.38,72.15l.1-11.58V58.1ZM49.57,47.61H62.31a4.39,4.39,0,1,1,0,8.77H49.57a4.39,4.39,0,1,1,0-8.77ZM72.34,75.75H49.54a3.85,3.85,0,1,1,0-7.69h22.8a3.85,3.85,0,0,1,0,7.69Z"/>
			<path class="cls-3" d="M13.89,44.14s3.62-15,16.88-21.81l71,64.49S93.12,105.4,76.57,108Z"/>
		</g>
	</g>
</svg>