<svg xmlns="http://www.w3.org/2000/svg" viewBox="0 0 120 120">
	<defs>
		<style>
			.cls-1{fill:#262626;stroke:#262626;stroke-miterlimit:10;}
			.cls-2,.cls-3{fill:#eef2e0;fill-rule:evenodd;}
			.cls-3{opacity:0.2;}
			#google_plus:hover{opacity: .5; height: 75px; width: 75px;}
		</style>
	</defs>
	<title>googleplus2</title>
	<g id="_2" data-name="2">
		<g id="google_plus" data-name="google plus">
			<circle class="cls-1" cx="60.8" cy="61" r="49"/>
			<path class="cls-2" d="M69.62,59.83c-5.35.08-10.71.08-16.07.08-1.52,0-3.09-.08-4.59,0-.32,0-.8.36-.8.56,0,3.11,0,6.21,0,9.43H61.2a6,6,0,0,1-.44,1.57c-2,6-8.13,8.9-14.78,7.81A14.39,14.39,0,0,1,34.19,62.13a15.39,15.39,0,0,1,1-3.35,14.45,14.45,0,0,1,16.11-8.09,13.24,13.24,0,0,1,6.16,3.18l7.21-7.21a3.52,3.52,0,0,1-.61-.52A23.54,23.54,0,0,0,44.13,40.7,24.71,24.71,0,0,0,25.21,73.76,24.8,24.8,0,0,0,51.1,89.35c5.51-.61,10.43-2.58,14.21-6.65,5.68-6,7.17-13.29,6.24-21.3-.16-1.33-.68-1.57-1.93-1.57ZM94,60.6H92.37V59.15c0-2.06,0-4.11,0-6.21,0-.32-.4-.92-.56-.92-1.85-.08-3.75-.08-5.72-.08v8.57H77.43v1.58c.08,1.53.13,3.1.24,4.63,1.49.08,3,.16,4.55.16,1.25,0,2.54,0,3.91,0v8.45c2.14,0,4.11,0,6.24,0V66.88h8.46V60.6Z"/>
			<path class="cls-3" d="M14.17,44.14s3.62-15,16.88-21.81l71,64.49S93.4,105.4,76.85,108Z"/>
		</g>
	</g>
</svg>