<svg xmlns="http://www.w3.org/2000/svg" viewBox="0 0 120 120">
	<defs>
		<style>.cls-1{fill:#262626;stroke:#262626;stroke-miterlimit:10;}.cls-2,.cls-3{fill:#eef2e0;fill-rule:evenodd;}.cls-3{opacity:0.2;}
		#instagram:hover{opacity: .5; height: 75px; width: 75px;}
		</style>
	</defs>
	<title>instagram2</title>
	<g id="_2" data-name="2">
		<g id="instagram">
			<circle class="cls-1" cx="60.08" cy="61.42" r="49"/>
			<path class="cls-2" d="M49.12,61A11.83,11.83,0,1,1,60.94,72.86,11.85,11.85,0,0,1,49.12,61ZM76.58,31.4H45.33a14,14,0,0,0-14,14V76.66a14.06,14.06,0,0,0,14,14H76.58a14,14,0,0,0,14-14V45.41a14,14,0,0,0-14-14Zm-29,7.25H74.34a9,9,0,0,1,9,9V74.42a9,9,0,0,1-9,9H47.57a9,9,0,0,1-9-9V47.65a9,9,0,0,1,9-9Zm29.56,3.49a2.81,2.81,0,1,0,2.81,2.8,2.8,2.8,0,0,0-2.81-2.8ZM78.39,61A17.46,17.46,0,1,0,60.94,78.47,17.46,17.46,0,0,0,78.39,61Z"/>
			<path class="cls-3" d="M14.45,43.56s3.62-15,16.88-21.8l71,64.49s-8.64,18.57-25.19,21.12Z"/>
		</g>
	</g>
</svg>