<svg xmlns="http://www.w3.org/2000/svg" viewBox="0 0 120 120">
	<defs>
		<style>
			.cls-1{fill:#262626;stroke:#262626;stroke-miterlimit:10;}
			.cls-2,.cls-3{fill:#eef2e0;fill-rule:evenodd;}
			.cls-3{opacity:0.2;}
			#paypal:hover{opacity: .5; height: 75px; width: 75px;}
		</style>
	</defs>
	<title>paypal2</title>
	<g id="_2" data-name="2">
		<g id="paypal">
		<circle class="cls-1" cx="60.32" cy="61.17" r="49"/>
		<path class="cls-2" d="M86.3,42.68C88.65,47,87.85,52,87,54.93,82,71.11,59.64,70.28,56.42,70.28a4.12,4.12,0,0,0-4,3L50,83.78a3.93,3.93,0,0,1-4,3.54H38.18A2.37,2.37,0,0,0,40.69,90H48a4,4,0,0,0,4-3.54L54.39,75.9a4.13,4.13,0,0,1,4-3.05c3.22,0,25.58.9,30.53-15.28,1.09-3.64,2-10.23-2.64-14.89ZM53.88,54.8l2.19-9.39s.7-2.54,2.92-2.89a26,26,0,0,1,7,.25C72.31,44,71,49.91,71,49.91c-1.22,9.3-15.63,8-15.63,8a2.38,2.38,0,0,1-1.45-3.12ZM47.77,81.5,50.15,71a4.16,4.16,0,0,1,4.05-3c3.22,0,25.57.87,30.53-15.31,1.8-5.92,3.08-19.94-19.53-19.94H48.93a4.27,4.27,0,0,0-4.28,3.47L34,82.14S33.58,85,36.44,85h7.31a4,4,0,0,0,4-3.54Z"/>
		<path class="cls-3" d="M14.69,43.31s3.62-15,16.88-21.8l71,64.49s-8.64,18.57-25.19,21.12Z"/>
		</g>
	</g>
</svg>