<svg xmlns="http://www.w3.org/2000/svg" viewBox="0 0 120 120"><defs><style>.cls-1{fill:#262626;stroke:#262626;stroke-miterlimit:10;}.cls-2,.cls-3{fill:#eef2e0;fill-rule:evenodd;}.cls-3{opacity:0.2;}</style></defs><title>pinterest2</title><g id="_2" data-name="2"><g id="pinterest"><circle class="cls-1" cx="60.32" cy="61.17" r="49"/><path class="cls-2" d="M63,29.91c-18.77,0-28.3,13-28.3,23.92a21.39,21.39,0,0,0,.72,5.76c1.13,4.09,3.56,7.39,7.4,8.92a1.32,1.32,0,0,0,2-1c.22-.69.62-2.35.84-3.08.29-1,.18-1.3-.55-2.14a10.3,10.3,0,0,1-2.17-4,13.16,13.16,0,0,1-.47-3.55c0-9.68,7.5-18.38,19.53-18.38,10.62,0,16.49,6.27,16.49,14.68a34.45,34.45,0,0,1-.72,7.1c-1.67,7.72-6,13.3-11.85,13.3-4.13,0-7.29-3.3-6.27-7.39.58-2.28,1.41-4.68,2.14-7a24.54,24.54,0,0,0,1.41-6.59c0-3.19-1.74-5.76-5.4-5.76-4.24,0-7.65,4.27-7.65,9.93a15.14,15.14,0,0,0,.26,2.82,13.81,13.81,0,0,0,1,3.27S47,78.58,46.3,81.7c-1.53,6.23-.22,13.81-.11,14.57,0,.43.65.54.94.21.4-.5,5.44-6.48,7.18-12.54.43-1.74,2.79-10.58,2.79-10.58,1.34,2.58,5.36,4.82,9.67,4.82,10.33,0,18-7.5,20.52-18.41a34.71,34.71,0,0,0,.87-7.9c0-11.42-10-22-25.16-22Z"/><path class="cls-3" d="M14.69,43.31s3.62-15,16.88-21.8l71,64.49s-8.64,18.57-25.19,21.12Z"/></g></g></svg>