<svg xmlns="http://www.w3.org/2000/svg" viewBox="0 0 120 120">
	<defs>
		<style>
			.cls-1{fill:#262626;stroke:#262626;stroke-miterlimit:10;}
			.cls-2,.cls-3{fill:#eef2e0;fill-rule:evenodd;}
			.cls-3{opacity:0.2;}
		</style>
	</defs>
	<title>skype2</title>
	<g id="_2" data-name="2">
		<g id="skype">
			<circle class="cls-1" cx="60.32" cy="60.5" r="49"/>
			<path class="cls-2" d="M89.94,67.42a28.76,28.76,0,0,0,.72-6.49,22.1,22.1,0,0,0-.08-2.32A30.48,30.48,0,0,0,60,30.69a31.81,31.81,0,0,0-5.26.41,18,18,0,0,0-9.45-2.66A17.66,17.66,0,0,0,27.51,46,17,17,0,0,0,30,54.85c-.22,1.09-.41,2.22-.52,3.31,0,.93-.12,1.83-.12,2.77A30.47,30.47,0,0,0,60,91.17a31.75,31.75,0,0,0,5.62-.52A17.48,17.48,0,0,0,74,92.75,17.68,17.68,0,0,0,91.82,75.19a17.37,17.37,0,0,0-1.88-7.77Zm-14.22,8a14.33,14.33,0,0,1-6.19,4.69,25.85,25.85,0,0,1-9.64,1.61,23.6,23.6,0,0,1-11-2.25A14.39,14.39,0,0,1,43.87,75,9.66,9.66,0,0,1,42,69.52a3.63,3.63,0,0,1,1.27-2.85,4.58,4.58,0,0,1,3.19-1.16,4.08,4.08,0,0,1,2.7.94A6.52,6.52,0,0,1,50.92,69a13.06,13.06,0,0,0,1.73,3.07,7.29,7.29,0,0,0,2.55,2,10.8,10.8,0,0,0,4.47.75,10.9,10.9,0,0,0,6.19-1.57,4.5,4.5,0,0,0,2.25-3.76A3.79,3.79,0,0,0,67,66.6a10.06,10.06,0,0,0-3.3-1.76,57.58,57.58,0,0,0-5.63-1.36A48.69,48.69,0,0,1,50,61.12a13.55,13.55,0,0,1-5.26-3.83,9.39,9.39,0,0,1-1-1.69,9.65,9.65,0,0,1-.93-4.39,9.53,9.53,0,0,1,2.1-6.07,12.33,12.33,0,0,1,6-4.06,24.36,24.36,0,0,1,9-1.46,25.36,25.36,0,0,1,7.2.94A17.61,17.61,0,0,1,72,43a10.63,10.63,0,0,1,3,3.31A7.45,7.45,0,0,1,76,49.83a4,4,0,0,1-1.24,2.89A4.3,4.3,0,0,1,71.56,54a3.9,3.9,0,0,1-2.63-.79A9.17,9.17,0,0,1,67.1,50.8a10.56,10.56,0,0,0-2.78-3.38c-1-.75-2.74-1.12-5.1-1.12a9.66,9.66,0,0,0-5.33,1.31A3.41,3.41,0,0,0,52,50.5a2.86,2.86,0,0,0,.63,1.77,6.79,6.79,0,0,0,1.84,1.38,15.4,15.4,0,0,0,2.44.9,2.53,2.53,0,0,0,.53.12c.86.26,2.13.52,3.75.93,2.44.53,4.76,1.09,6.79,1.73a21.68,21.68,0,0,1,5.21,2.4,9.36,9.36,0,0,1,3.45,3.57,10.73,10.73,0,0,1,1.24,5.36,11.25,11.25,0,0,1-2.14,6.72Z"/>
			<path class="cls-3" d="M13.69,43.64s3.62-15,16.88-21.81l71,64.49s-8.64,18.58-25.19,21.13Z"/>
		</g>
	</g>
</svg>