<svg xmlns="http://www.w3.org/2000/svg" viewBox="0 0 120 120">
	<defs>
		<style>
			.cls-1{fill:#262626;stroke:#262626;stroke-miterlimit:10;}
			.cls-2,.cls-3{fill:#eef2e0;fill-rule:evenodd;}
			.cls-3{opacity:0.2;}
			#snapchat:hover{opacity: .5; height: 75px; width: 75px;}
		</style>
	</defs>
	<title>snapchat2</title>
	<g id="_2" data-name="2">
		<g id="snapchat">
			<circle class="cls-1" cx="60.91" cy="61.42" r="49"/>
			<path class="cls-2" d="M92.79,78V78h-.07v0a6.06,6.06,0,0,0-2-.73h0a17.2,17.2,0,0,1-8.26-6.08,21.3,21.3,0,0,1-2.9-5h0a2.37,2.37,0,0,1,.1-2.14h.07a6.1,6.1,0,0,1,2.84-1.87h0a10.85,10.85,0,0,0,3.87-2h0a1.38,1.38,0,0,0,.58-.72,1.14,1.14,0,0,1,.11-.28,1.56,1.56,0,0,0-.11-1h0a3.07,3.07,0,0,0-1.31-1.28h0a3.13,3.13,0,0,0-2.35-.2h0a8.47,8.47,0,0,1-2,.58s0,.07,0,.07a5.66,5.66,0,0,1-2.35-.07,1.56,1.56,0,0,0-.07-.51h0c0-1.39.1-2.84.1-4.39h0a41.89,41.89,0,0,0-.14-7v-.07a15.84,15.84,0,0,0-6.56-9.71,16.4,16.4,0,0,0-8-2.8h0a28.2,28.2,0,0,0-2.9-.17,18,18,0,0,0-10.92,3.52,17.11,17.11,0,0,0-5.36,7v0c-1.1,2.77-1,5.77-.83,8.5h0c0,1.9.25,3.77.11,5.6,0,0,0,0-.07.1a7.87,7.87,0,0,1-2.73-.07h0c-.66-.1-1.28-.38-2.08-.58h-.07a2.27,2.27,0,0,0-2,.45h0v0A2.12,2.12,0,0,0,36,58.9a.25.25,0,0,0,0,.14h0a2,2,0,0,0,.7,1.14,2.67,2.67,0,0,0,.72.51v.07a24.44,24.44,0,0,0,4.32,1.87h0a3,3,0,0,1,1.94,1.86A4.81,4.81,0,0,1,43,67.78h0a19.9,19.9,0,0,1-6.56,7.53,16.61,16.61,0,0,1-4.8,2.18h0a2.82,2.82,0,0,0-1.72,1,.3.3,0,0,0-.11.21A1.42,1.42,0,0,0,30.05,80a2,2,0,0,0,.76.59h0a16.07,16.07,0,0,0,4.45,1.55h0a25.88,25.88,0,0,1,2.8.7c0,.07.14.31.32.76.27.79.38,1.76.69,2.73a.78.78,0,0,0,.58.51,1.55,1.55,0,0,0,1.07-.06,0,0,0,0,0,0,0c2.45-.38,4.87-.76,7.05-.21h0c2.35.59,4.32,2.18,6.63,3.56h0a10.41,10.41,0,0,0,5.25,1.94h0A31.92,31.92,0,0,0,64.18,92h0a8.34,8.34,0,0,0,3.53-1.17l.07-.07c2.38-1.31,4.46-3,6.81-4h0a12.74,12.74,0,0,1,2.76-.31h0a41.09,41.09,0,0,1,5.77.31h.21a1.09,1.09,0,0,0,.65-.34c.14-.18.14-.35.21-.45s.1-.24,0-.11c.07,0,.07-.1.1-.13a8,8,0,0,1,1.07-2.84,1.69,1.69,0,0,1,1.21-.38h.14a22.78,22.78,0,0,0,4.56-1.28c0-.07,0-.07.07-.07a3.74,3.74,0,0,0,1.8-1.21h0A1.27,1.27,0,0,0,92.79,78Z"/>
			<path class="cls-3" d="M15.28,43.56s3.62-15,16.87-21.8l71,64.49S94.5,104.82,78,107.37Z"/>
		</g>
	</g>
</svg>