<svg xmlns="http://www.w3.org/2000/svg" viewBox="0 0 120 120"><defs><style>.cls-1{fill:#262626;stroke:#262626;stroke-miterlimit:10;}.cls-2,.cls-3{fill:#eef2e0;fill-rule:evenodd;}.cls-3{opacity:0.2;}</style></defs><title>soundcloud2</title><g id="_2" data-name="2"><g id="soundcloud"><circle class="cls-1" cx="60.16" cy="60.54" r="49"/><path class="cls-2" d="M34.71,78h0A2.89,2.89,0,0,1,32,75V63a2.89,2.89,0,0,1,2.74-3,3,3,0,0,1,2.85,3V75a3,3,0,0,1-2.85,3Zm11.18,0h0a2.9,2.9,0,0,1-2.81-3V56.94a2.8,2.8,0,1,1,5.59,0V75a2.9,2.9,0,0,1-2.78,3ZM57,78h0c-1.53,0-2.77-1.66-2.77-3.8V51.64c0-2.06,1.24-3.72,2.77-3.72s2.78,1.66,2.78,3.72v22.6c0,2.14-1.24,3.8-2.78,3.8Zm34.76,0c5.41,0,9.76-4.63,9.76-10.57s-4.35-10.53-9.76-10.53a7.36,7.36,0,0,0-3.14.64C86.9,47.72,79,40.4,69.54,40.4a18.62,18.62,0,0,0-4.17.43V78H91.76ZM23.6,78h0a2.89,2.89,0,0,1-2.74-3V69a2.89,2.89,0,0,1,2.74-3,2.89,2.89,0,0,1,2.78,3v6a2.9,2.9,0,0,1-2.78,3Z"/><path class="cls-3" d="M13.53,43.67s3.62-15,16.88-21.8l71,64.49s-8.64,18.58-25.19,21.13Z"/></g></g></svg>