<svg xmlns="http://www.w3.org/2000/svg" viewBox="0 0 120 120">
	<defs>
		<style>
			.cls-1{fill:#262626;stroke:#262626;stroke-miterlimit:10;}.cls-2,.cls-3{fill:#eef2e0;}
			.cls-3{fill-rule:evenodd;opacity:0.2;}
			#spotify:hover{opacity: .5; height: 75px; width: 75px;}
		</style>
	</defs>
	<title>spotify2</title>
	<g id="_2" data-name="2">
		<g id="spotify">
			<circle class="cls-1" cx="59.73" cy="59.95" r="49"/>
			<path class="cls-2" d="M60.08,26.49A32.48,32.48,0,1,0,92.56,59,32.58,32.58,0,0,0,60.08,26.49Zm17,49a2.21,2.21,0,0,1-3.16.75c-8.75-5.4-19.74-6.52-32.76-3.54a2.3,2.3,0,0,1-1.12-4.47c14.14-3.16,26.43-1.86,36.11,4.1A2.22,2.22,0,0,1,77.1,75.5Zm4.47-10.24a2.8,2.8,0,0,1-3.91.93c-10-6.14-25.32-8-37-4.27a2.83,2.83,0,0,1-1.68-5.41c13.59-4.09,30.34-2,41.88,5A2.62,2.62,0,0,1,81.57,65.26Zm5.22-11.35a3.91,3.91,0,0,1-4.84.93C70,47.77,50.12,47,38.76,50.56a3.42,3.42,0,0,1-2-6.52c13.22-3.91,35-3.16,48.77,5A3.6,3.6,0,0,1,86.79,53.91Z"/>
			<path class="cls-3" d="M13.11,43.08s3.61-15,16.87-21.8l71,64.49s-8.65,18.57-25.2,21.12Z"/>
		</g>
	</g>
</svg>