<svg xmlns="http://www.w3.org/2000/svg" viewBox="0 0 120 120"><defs><style>.cls-1{fill:#262626;stroke:#262626;stroke-miterlimit:10;}.cls-2,.cls-3{fill:#eef2e0;fill-rule:evenodd;}.cls-3{opacity:0.2;}</style></defs><title>twitter2</title><g id="_2" data-name="2"><g id="twitter"><circle class="cls-1" cx="59.83" cy="60" r="49"/><path class="cls-2" d="M91.87,43.22a27,27,0,0,1-7.22,2,12.42,12.42,0,0,0,5.56-6.89,25.76,25.76,0,0,1-8,3,12.65,12.65,0,0,0-21.81,8.46,12.89,12.89,0,0,0,.37,2.83,35.77,35.77,0,0,1-26-13A12.52,12.52,0,0,0,33,45.88,12.39,12.39,0,0,0,38.63,56.2a12.2,12.2,0,0,1-5.69-1.53v.17a11.62,11.62,0,0,0,.87,4.46A12.57,12.57,0,0,0,43.06,67a12.34,12.34,0,0,1-3.33.46,11.68,11.68,0,0,1-2.36-.26,12.7,12.7,0,0,0,11.75,8.65,25.46,25.46,0,0,1-15.61,5.3c-1,0-2-.07-3-.17A36.32,36.32,0,0,0,49.79,86.5c19.67,0,31.83-13.62,35-27.77a33.91,33.91,0,0,0,.83-7.49v-1.6a26,26,0,0,0,6.26-6.42Z"/><path class="cls-3" d="M13.2,43.14s3.62-15,16.87-21.81l71,64.49S92.43,104.4,75.88,107Z"/></g></g></svg>