<svg xmlns="http://www.w3.org/2000/svg" viewBox="0 0 120 120">
	<defs>
		<style>
			.cls-1{fill:#262626;stroke:#262626;stroke-miterlimit:10;}
			.cls-2,.cls-3{fill:#eef2e0;fill-rule:evenodd;}
			.cls-3{opacity:0.2;}
			#vk:hover{opacity: .5; height: 75px; width: 75px;}
		</style>
	</defs>
	<title>vk2</title>
	<g id="_2" data-name="2">
		<g id="vk">
			<circle class="cls-1" cx="60.08" cy="61" r="49"/>
			<path class="cls-2" d="M94.63,46.82c-1-.73-4.49-.73-8-.73s-7.09.08-7.92.4-2.46,4.41-4.67,8.64c-2.53,4.78-5.6,9.41-7.56,9.34-2.56,0-2-7.85-1.77-13.67,0-3.8-.58-5-1.12-5.36a21.61,21.61,0,0,0-5-1.84S47.53,42.77,46,47.54c2.13.29,5.75-.36,4.34,14.43-.11.73-1.7,6.8-6.84-1.41-1.3-2.06-6.22-14.39-8-14.47-5.68-.11-11.32-.36-13.27.73s2.46,9.55,9.73,20.9c5.89,9.34,12.15,16.57,23,18.38,2.07.22,7.35.43,9.05-.36,1.12-.55-.29-8.57,3.58-9.37,1.7-.33,8.32,8.39,10.81,9.37,1.53.61,4.85.87,8.25.72,3.69-.11,7.89.36,8.28-2.17.91-5.53-11.17-12.77-11.5-16.17-.29-2.46,4.42-7,6.8-10.45,3-4.2,6.22-9.26,4.38-10.85Z"/>
			<path class="cls-3" d="M13.45,44.14s3.62-15,16.88-21.81l71,64.49S92.68,105.4,76.13,108Z"/>
		</g>
	</g>
</svg>