<svg xmlns="http://www.w3.org/2000/svg" viewBox="0 0 120 120">
	<defs>
		<style>
			.cls-1{fill:#262626;stroke:#262626;stroke-miterlimit:10;}
			.cls-2,.cls-3{fill:#eef2e0;fill-rule:evenodd;}
			.cls-3{opacity:0.2;}
			#whatsapp:hover{opacity: .5; height: 75px; width: 75px;}
		</style>
	</defs>
	<title>whatsapp2</title>
	<g id="_2" data-name="2">
		<g id="whatsapp">
			<circle class="cls-1" cx="60.67" cy="60" r="49"/>
			<path class="cls-2" d="M90.71,57.43a29,29,0,0,0-58-.55,7.37,7.37,0,0,0-.07,1.25A28.84,28.84,0,0,0,36.78,73L31.52,88.5l16.11-5.1a29.32,29.32,0,0,0,14,3.56A28.94,28.94,0,0,0,90.74,58.13c0-.25,0-.45,0-.7ZM75,64c-.73-.36-4.2-2.09-4.84-2.35S69,61.28,68.5,62a30.67,30.67,0,0,1-2.25,2.73c-.41.51-.83.54-1.51.22A17.91,17.91,0,0,1,59,61.44a20.86,20.86,0,0,1-4-4.85c-.39-.77-.07-1.09.29-1.51a9,9,0,0,0,1.09-1.22,1.15,1.15,0,0,0,.25-.32,6,6,0,0,0,.45-.83A1.11,1.11,0,0,0,57,51.49c-.13-.36-1.57-3.89-2.18-5.27S53.67,45,53.29,45,52.39,45,51.9,45a2.45,2.45,0,0,0-1.89.9,7.62,7.62,0,0,0-2.54,5.91,7.3,7.3,0,0,0,.42,2.37,15.67,15.67,0,0,0,2.51,4.91c.35.48,4.91,7.84,12.16,10.66s7.29,1.86,8.57,1.77,4.21-1.67,4.82-3.37a5.85,5.85,0,0,0,.38-3.37A3.92,3.92,0,0,0,75,64ZM61.66,79.5A21.45,21.45,0,0,1,49.85,76L41.6,78.6l2.65-7.95a21.13,21.13,0,0,1-4.09-12.52,15.89,15.89,0,0,1,.11-2.06,21.52,21.52,0,0,1,42.84.4,15.63,15.63,0,0,1,.06,1.66A21.47,21.47,0,0,1,61.66,79.5Z"/>
			<path class="cls-3" d="M15,42.14s3.62-15,16.87-21.81l71,64.49S94.26,103.4,77.71,106Z"/>
		</g>
	</g>
</svg>