<svg xmlns="http://www.w3.org/2000/svg" viewBox="0 0 120 120">
	<defs><style>
		.cls-1{fill:#262626;stroke:#262626;stroke-miterlimit:10;}
		.cls-2,.cls-3{fill:#eef2e0;fill-rule:evenodd;}
		.cls-3{opacity:0.2;}
		#youtube:hover{opacity: .5; height: 75px; width: 75px;}
	</style>
	</defs>
	<title>youtube2</title>
	<g id="_2" data-name="2">
		<g id="youtube">
			<circle class="cls-1" cx="60.52" cy="61" r="49"/>
			<path class="cls-2" d="M92.41,47.56s-.66-4.63-2.58-6.65a9.19,9.19,0,0,0-6.4-2.86c-9-.66-22.46-.66-22.46-.66H60.9s-13.44,0-22.42.66A9.17,9.17,0,0,0,32,40.91c-1.92,2-2.58,6.65-2.58,6.65a102.71,102.71,0,0,0-.66,10.79v5.12a101,101,0,0,0,.66,10.79S30.12,78.89,32,81c2.44,2.68,5.64,2.58,7.1,2.85,5.12.53,21.83.7,21.83.7s13.48-.07,22.46-.7A9,9,0,0,0,89.83,81c1.92-2.06,2.58-6.69,2.58-6.69A105.7,105.7,0,0,0,93,63.47V58.35a107.53,107.53,0,0,0-.63-10.79ZM75.27,60.25,50.68,73.5V46.89L61.82,53Z"/>
			<path class="cls-3" d="M13.89,45.14s3.62-15,16.88-21.81l71,64.49S93.12,106.4,76.57,109Z"/>
		</g>
	</g>
</svg>